<?xml version="1.0" standalone="no"?>
<!DOCTYPE svg PUBLIC "-//W3C//DTD SVG 20010904//EN"
 "http://www.w3.org/TR/2001/REC-SVG-20010904/DTD/svg10.dtd">
<svg version="1.0" xmlns="http://www.w3.org/2000/svg"
 width="232.000000pt" height="250.000000pt" viewBox="0 0 232.000000 250.000000"
 preserveAspectRatio="xMidYMid meet">

<g transform="translate(0.000000,250.000000) scale(0.100000,-0.100000)"
fill="#000000" stroke="none">
<path d="M1371 2364 c-19 -19 -29 -34 -23 -34 10 0 72 57 72 66 0 11 -18 -1
-49 -32z"/>
<path d="M1057 2383 c-4 -3 -7 -15 -7 -25 0 -10 -4 -18 -10 -18 -5 0 -10 -15
-10 -32 0 -18 -9 -44 -20 -58 l-19 -25 -28 22 c-23 17 -28 27 -26 59 2 27 0
34 -6 25 -5 -8 -24 -22 -43 -30 -33 -16 -44 -41 -20 -48 6 -3 12 2 12 11 0 22
33 20 55 -4 30 -33 -2 -69 -33 -38 -10 10 -16 7 -28 -10 -15 -22 -64 -31 -64
-12 0 6 -8 10 -17 9 -11 0 -13 -3 -5 -6 14 -5 17 -33 3 -33 -5 0 -17 -7 -25
-15 -12 -12 -20 -14 -36 -5 -24 13 -26 42 -5 60 14 12 11 35 -3 26 -4 -2 -7 9
-8 25 -1 16 3 29 7 29 5 0 9 5 9 10 0 6 -7 10 -15 10 -9 0 -15 -9 -15 -24 0
-13 -7 -29 -15 -36 -19 -16 -19 -30 0 -30 20 0 9 -91 -12 -105 -9 -5 -28 -20
-43 -32 -15 -13 -37 -23 -48 -23 -11 0 -26 -7 -33 -16 -8 -9 -32 -28 -54 -42
-38 -24 -54 -39 -149 -143 -63 -69 -98 -115 -113 -149 -4 -8 -9 -17 -12 -20
-6 -5 -40 -66 -51 -90 -4 -8 -14 -30 -23 -48 -9 -19 -17 -42 -17 -51 0 -10 -3
-21 -7 -25 -8 -8 -25 -68 -44 -156 -16 -72 -21 -308 -9 -375 14 -75 38 -165
51 -187 5 -10 9 -26 9 -36 0 -10 7 -27 15 -38 8 -10 15 -29 15 -41 0 -13 3
-23 8 -23 4 0 16 -20 27 -45 11 -25 22 -45 26 -45 4 0 9 -8 13 -17 13 -42 54
-91 161 -198 104 -103 140 -135 150 -135 5 0 22 -10 39 -23 17 -12 58 -35 91
-51 33 -16 67 -32 75 -36 9 -4 30 -11 48 -14 17 -4 34 -12 37 -17 4 -5 18 -9
33 -9 15 0 37 -7 49 -15 30 -21 481 -20 521 1 15 8 38 14 52 14 14 1 36 7 50
15 14 8 35 14 48 15 12 0 22 5 22 10 0 6 7 10 16 10 23 0 144 59 144 71 0 5 5
9 12 9 37 0 328 271 328 307 0 3 6 14 14 22 13 15 61 97 76 131 4 8 14 30 23
48 9 19 17 42 17 51 0 10 3 21 7 25 9 9 30 87 44 165 5 29 14 61 18 70 13 23
14 248 2 255 -5 4 -13 28 -16 54 -3 26 -10 54 -15 63 -4 9 -11 37 -15 63 -4
25 -11 49 -16 52 -5 3 -9 14 -9 24 0 35 -79 199 -116 241 -8 8 -14 19 -14 22
0 13 -130 159 -180 203 -14 12 -41 36 -60 53 -19 16 -46 36 -60 43 -14 7 -27
15 -30 18 -11 12 -107 68 -129 75 -13 4 -20 12 -17 20 4 11 -1 11 -25 3 -25
-9 -38 -6 -77 13 -26 13 -49 27 -52 31 -3 4 -23 5 -44 3 -28 -4 -49 0 -72 14
-28 17 -45 19 -109 14 -48 -4 -79 -2 -83 4 -13 19 -49 25 -56 8 -6 -17 -47
-20 -63 -4 -6 6 -8 19 -6 30 4 14 11 17 28 13 20 -5 23 -3 18 15 -3 12 -12 21
-19 21 -18 0 -18 15 1 33 8 8 11 17 8 21 -8 8 -18 8 -26 -1z m108 -264 c4 -5
-5 -28 -19 -49 -14 -22 -26 -42 -26 -46 0 -3 -10 -20 -22 -37 -13 -17 -66
-104 -119 -192 l-97 -160 -286 -3 c-207 -2 -286 1 -286 9 0 19 98 135 163 195
81 72 180 137 292 190 100 48 171 69 290 89 103 17 103 17 110 4z m260 -20
c241 -61 437 -193 583 -391 23 -31 42 -64 42 -72 0 -13 -38 -16 -277 -18 -173
-2 -281 1 -288 7 -18 14 -38 47 -227 373 -34 59 -57 109 -54 118 5 13 18 14
78 8 40 -3 105 -15 143 -25z m-186 -306 c27 -43 59 -93 71 -112 12 -20 17 -38
12 -43 -16 -16 -79 -21 -176 -13 -105 8 -112 13 -78 63 10 15 38 62 61 105 23
42 47 77 52 77 5 0 32 -35 58 -77z m-893 -270 c27 -48 62 -110 78 -138 15 -27
39 -70 53 -95 14 -25 43 -75 64 -111 l40 -66 -76 -128 c-41 -70 -75 -129 -75
-131 0 -3 -16 -30 -35 -60 -19 -30 -35 -56 -35 -59 0 -3 -14 -28 -31 -56 -18
-28 -28 -54 -23 -58 10 -9 362 -31 492 -31 l83 0 45 -72 c25 -40 89 -145 142
-233 54 -88 104 -160 111 -160 12 0 93 122 166 250 52 93 126 210 137 216 6 4
119 10 252 13 132 4 258 9 278 12 55 8 58 -13 12 -82 -153 -231 -435 -401
-716 -434 -84 -10 -261 1 -343 21 -203 49 -416 174 -556 327 -278 305 -339
747 -151 1109 15 29 30 53 33 53 3 0 27 -39 55 -87z m1765 12 c16 -35 41 -104
56 -152 25 -81 27 -102 27 -268 1 -197 -9 -253 -76 -412 -32 -77 -51 -90 -73
-48 -6 11 -26 47 -46 80 -19 33 -38 67 -42 75 -4 8 -16 29 -26 45 -66 107
-141 245 -141 260 0 17 31 77 90 175 15 25 55 95 90 155 87 152 89 155 101
155 6 0 23 -29 40 -65z m-1326 -45 c7 -11 -112 -220 -125 -220 -8 0 -129 185
-133 204 -1 7 36 13 113 17 63 3 120 6 127 7 6 1 15 -2 18 -8z m643 -2 c23
-28 212 -361 212 -374 0 -18 -197 -342 -229 -377 l-26 -29 -208 4 c-114 3
-211 9 -216 14 -12 13 -209 348 -217 367 -6 16 42 110 111 222 17 28 39 66 50
87 41 80 46 82 142 89 177 11 370 10 381 -3z m410 -9 c2 -9 -14 -45 -34 -80
-85 -149 -106 -165 -134 -106 -9 18 -33 65 -54 104 -21 40 -36 80 -32 88 9 24
249 18 254 -6z m-35 -651 c54 -94 66 -137 33 -125 -7 3 -70 9 -140 13 -70 3
-129 11 -132 16 -3 4 22 56 55 114 34 58 61 110 61 114 0 5 6 11 13 13 16 7
41 -26 110 -145z m-1083 37 c28 -46 55 -87 61 -90 5 -4 9 -15 9 -26 0 -18 -8
-19 -130 -19 -89 0 -130 4 -130 11 0 6 15 37 33 68 19 31 46 77 61 104 15 26
31 45 36 42 5 -3 32 -44 60 -90z m606 -269 c6 -17 -128 -240 -147 -244 -8 -1
-24 17 -36 40 -58 116 -93 199 -88 208 4 6 62 10 136 10 102 0 131 -3 135 -14z"/>
<path d="M1357 1353 c-12 -11 14 -33 39 -33 29 0 31 15 5 30 -23 12 -35 13
-44 3z"/>
<path d="M950 1306 c0 -24 23 -41 41 -30 5 3 9 16 9 30 0 19 -5 24 -25 24 -20
0 -25 -5 -25 -24z"/>
<path d="M845 1250 c-12 -20 7 -30 56 -30 27 0 49 -4 49 -10 0 -5 -12 -10 -26
-10 -14 0 -34 -5 -45 -10 -21 -12 -26 -46 -6 -53 10 -4 10 -7 0 -18 -7 -7 -13
-25 -13 -40 0 -33 41 -67 110 -92 56 -21 70 -21 70 -3 0 9 -19 18 -50 25 -49
11 -90 40 -90 64 0 6 12 20 26 31 33 23 56 8 36 -25 -14 -22 -8 -39 13 -39 16
0 45 27 45 41 0 19 -64 69 -88 69 -14 0 -21 4 -16 11 3 6 17 8 31 4 29 -7 53
9 53 36 0 12 7 19 20 19 13 0 20 7 20 20 0 19 -7 20 -94 20 -53 0 -98 -4 -101
-10z"/>
<path d="M1194 1251 c-13 -13 -1 -31 20 -31 14 0 28 -5 31 -10 11 -18 -6 -50
-26 -50 -24 0 -25 -31 -3 -65 18 -27 34 -33 34 -12 0 8 9 22 19 31 18 16 22
16 41 3 12 -8 30 -13 40 -10 16 4 19 -2 22 -38 2 -32 8 -45 21 -47 15 -3 17 7
17 97 0 94 1 101 20 101 18 0 20 -8 22 -97 3 -84 6 -98 21 -101 15 -3 17 6 17
89 0 72 4 96 17 111 9 10 14 20 11 23 -6 7 -318 12 -324 6z m174 -68 c-3 -37
-4 -38 -43 -38 -39 0 -40 1 -43 38 l-3 37 46 0 46 0 -3 -37z"/>
<path d="M1275 1030 c3 -5 11 -10 16 -10 6 0 7 5 4 10 -3 6 -11 10 -16 10 -6
0 -7 -4 -4 -10z"/>
<path d="M900 2360 c-12 -8 -10 -10 8 -10 13 0 20 4 17 10 -7 12 -6 12 -25 0z"/>
<path d="M853 2345 c-8 -8 -9 -16 -3 -20 5 -3 14 4 20 15 12 23 1 26 -17 5z"/>
<path d="M1445 2349 c-4 -6 -5 -13 -2 -16 7 -7 27 6 27 18 0 12 -17 12 -25 -2z"/>
<path d="M1120 2325 c0 -8 5 -15 10 -15 6 0 10 7 10 15 0 8 -4 15 -10 15 -5 0
-10 -7 -10 -15z"/>
<path d="M1620 2300 c0 -5 4 -10 9 -10 6 0 13 5 16 10 3 6 -1 10 -9 10 -9 0
-16 -4 -16 -10z"/>
<path d="M576 2274 c-9 -22 -8 -24 9 -24 8 0 15 9 15 20 0 24 -15 27 -24 4z"/>
<path d="M760 2261 c0 -5 5 -13 10 -16 6 -3 10 -2 10 4 0 5 -4 13 -10 16 -5 3
-10 2 -10 -4z"/>
<path d="M590 2212 c0 -10 -5 -23 -10 -28 -8 -8 -6 -15 5 -24 13 -11 15 -7 15
29 0 22 -2 41 -5 41 -3 0 -5 -8 -5 -18z"/>
<path d="M520 2195 c0 -8 5 -15 10 -15 6 0 10 7 10 15 0 8 -4 15 -10 15 -5 0
-10 -7 -10 -15z"/>
<path d="M436 2162 c-2 -4 7 -12 20 -19 26 -12 32 -5 12 15 -14 14 -25 15 -32
4z"/>
<path d="M511 2144 c-12 -14 -21 -28 -18 -30 8 -8 38 8 47 27 16 29 -5 31 -29
3z"/>
<path d="M605 2129 c-10 -15 3 -25 16 -12 7 7 7 13 1 17 -6 3 -14 1 -17 -5z"/>
<path d="M341 2098 c-20 -20 -27 -34 -20 -37 7 -2 17 3 23 11 6 8 21 20 34 27
12 6 22 16 22 21 0 20 -29 9 -59 -22z"/>
<path d="M527 2094 c-8 -8 1 -24 14 -24 5 0 9 7 9 15 0 15 -12 20 -23 9z"/>
<path d="M372 2058 c-25 -15 -30 -23 -20 -29 7 -5 22 -2 35 6 12 8 29 15 38
15 8 0 15 7 15 15 0 20 -28 17 -68 -7z"/>
<path d="M437 2015 c-10 -14 -24 -25 -32 -25 -8 0 -15 -4 -15 -10 0 -18 27
-10 54 16 25 26 33 44 19 44 -5 0 -16 -12 -26 -25z"/>
</g>
</svg>
